<svg width="84" height="32" viewBox="0 0 84 32" fill="none" xmlns="http://www.w3.org/2000/svg">
<path d="M31.7348 11.9734L25.0277 5.34362C23.1777 3.51485 20.1779 3.51485 18.3278 5.34362L11.6271 11.9672L11.6217 11.9725L9.99441 13.581C9.9748 13.6004 9.95609 13.6207 9.93737 13.64C9.93648 13.6409 9.93559 13.6427 9.93381 13.6436C9.08629 14.5474 9.11838 15.9692 10.0229 16.8633V16.8624C10.0238 16.8642 10.0256 16.865 10.0265 16.8668L10.0274 16.8677C10.039 16.8818 10.055 16.8959 10.0728 16.91C10.2689 17.0932 10.4872 17.2385 10.7189 17.3443C10.7189 17.3443 10.7189 17.3443 10.7189 17.3451C10.8687 17.413 11.0237 17.4649 11.1815 17.5011C11.9407 17.6737 12.7624 17.4729 13.3479 16.8941L14.4396 15.815L14.9761 15.2847L14.9868 15.2741L15.7363 14.5333L18.1879 12.1099L18.3261 11.9734C18.3252 11.9725 18.3234 11.9707 18.3225 11.9698C18.3252 11.9672 18.327 11.9654 18.3296 11.9628C20.1806 10.1411 23.1741 10.1428 25.0224 11.9689C25.0251 11.9716 25.0269 11.9742 25.0295 11.976C26.8698 13.803 26.8698 16.7576 25.0295 18.5846C25.0269 18.5872 25.0251 18.5899 25.0224 18.5916L23.3354 20.2592L18.3225 25.2143L17.164 26.3595C15.4342 28.0693 13.0841 28.7908 10.8303 28.5248C10.833 28.5274 10.8357 28.5301 10.8384 28.5327C13.8318 31.4917 18.6852 31.4917 21.6787 28.5327L25.0286 25.2214L31.7357 18.5916C33.5849 16.7673 33.5849 13.8021 31.7348 11.9734ZM9.93648 13.6436L9.93737 13.6462L9.93648 13.6436Z" fill="#2D8FFD"/>
<path d="M1.38757 18.7786L8.0946 25.4083C9.94469 27.2371 12.9444 27.2371 14.7945 25.4083L21.4953 18.7847L21.5006 18.7795L23.1279 17.1709C23.1475 17.1515 23.1663 17.1313 23.185 17.1119C23.1859 17.111 23.1868 17.1093 23.1885 17.1084C24.0361 16.2046 24.004 14.7828 23.0994 13.8886V13.8895C23.0985 13.8878 23.0967 13.8869 23.0959 13.8851L23.095 13.8842C23.0834 13.8701 23.0673 13.8561 23.0495 13.842C22.8535 13.6587 22.6351 13.5134 22.4034 13.4077C22.4034 13.4077 22.4034 13.4077 22.4034 13.4068C22.2537 13.339 22.0986 13.287 21.9409 13.2509C21.1816 13.0782 20.3599 13.2791 19.7744 13.8578L18.6827 14.9369L18.1462 15.4672L18.1355 15.4778L17.3861 16.2187L14.9344 18.642L14.7963 18.7786C14.7972 18.7795 14.799 18.7812 14.7998 18.7821C14.7972 18.7847 14.7954 18.7865 14.7927 18.7891C12.9417 20.6109 9.94826 20.6091 8.09995 18.783C8.09727 18.7803 8.09549 18.7777 8.09282 18.7759C6.25253 16.9489 6.25253 13.9944 8.09282 12.1673C8.09549 12.1647 8.09727 12.1621 8.09995 12.1603L9.78695 10.4927L14.7998 5.53762L15.9584 4.39244C17.6882 2.68259 20.0382 1.96113 22.292 2.22716C22.2893 2.22452 22.2867 2.22187 22.284 2.21923C19.2905 -0.739744 14.4371 -0.739744 11.4437 2.21923L8.0946 5.52617L1.38757 12.1559C-0.462523 13.9847 -0.462523 16.9498 1.38757 18.7786ZM23.1859 17.1093L23.185 17.1066L23.1859 17.1093Z" fill="#2D8FFD"/>
<path d="M54.7723 22.5236V5.95371C54.7723 5.95371 54.627 1.72975 50.5686 1.37122V9.48704C49.3004 7.87057 47.4985 7.04604 45.5958 7.04604C41.491 7.04604 38.4539 10.2129 38.4539 15.4252C38.4539 20.7363 41.524 23.7719 45.5958 23.7719C47.5314 23.7719 49.7113 22.8769 50.9794 21.293C51.245 21.8867 52.1674 23.6556 54.7723 23.7719V23.2803V22.5236V22.5236ZM46.8969 20.0439C44.4943 20.0439 42.8251 18.1631 42.8251 15.4252C42.8251 12.6539 44.4943 10.774 46.8969 10.774C48.3317 10.774 49.8672 11.5325 50.5677 12.5887V18.2301C49.8672 19.2845 48.3326 20.0439 46.8969 20.0439Z" fill="white"/>
<path d="M70.7261 11.829C70.7261 10.9384 71.7278 10.2451 73.2624 10.2451C73.9361 10.2451 74.5938 10.342 75.2069 10.5103C78.1345 11.4916 79.7145 9.25324 79.7145 9.25324L79.7341 9.21977C78.1327 7.96711 75.9644 7.0448 73.2294 7.0448C68.9909 7.0448 66.6213 9.38714 66.6213 12.0589C66.6213 18.3266 76.1997 16.1825 76.1997 18.8217C76.1997 19.8109 75.3317 20.5368 73.4959 20.5368C72.6457 20.5368 71.7242 20.3404 70.8544 20.0321C70.8009 20.0127 70.7492 19.9986 70.6984 19.9871C67.7014 18.9591 66.0857 21.2918 66.0857 21.2918L66.2096 21.135L66.0857 21.2953C67.7879 22.8457 70.4908 23.7698 73.2945 23.7698C77.7664 23.7698 80.2697 21.5596 80.2697 18.6561C80.2706 12.2246 70.7261 14.204 70.7261 11.829Z" fill="white"/>
<path d="M58.7118 1.36011C58.7118 1.36011 58.7091 14.7931 58.6949 19.1281C58.6806 23.4639 62.8986 23.7704 62.8986 23.7704C62.8986 23.7704 62.9351 12.1539 62.952 6.9671C62.9699 1.36627 58.7118 1.36011 58.7118 1.36011Z" fill="white"/>
<path d="M38.9143 26.9559H39.4098V30.6452H38.9143V26.9559Z" fill="white"/>
<path d="M40.8259 27.6889H41.3063V28.2218C41.4088 28.0597 41.5469 27.9302 41.7207 27.8316C41.8945 27.7329 42.0941 27.6836 42.3187 27.6836C42.5129 27.6836 42.6894 27.7135 42.848 27.7726C43.0066 27.8325 43.1403 27.9188 43.249 28.0333C43.3578 28.147 43.4424 28.2853 43.5021 28.4473C43.5618 28.6094 43.5913 28.7927 43.5913 28.9979V30.6443H43.1002V29.0226C43.1002 28.746 43.0271 28.5249 42.8801 28.3601C42.7331 28.1954 42.5156 28.1126 42.226 28.1126C42.0968 28.1126 41.9755 28.1355 41.8633 28.1822C41.751 28.228 41.6538 28.2923 41.5718 28.3751C41.4899 28.4579 41.4266 28.5557 41.3802 28.6693C41.3339 28.783 41.3116 28.9072 41.3116 29.0428V30.6452H40.8259V27.6889Z" fill="white"/>
<path d="M46.4039 30.6496C46.1793 30.6496 45.9707 30.6109 45.78 30.5325C45.5893 30.4541 45.4227 30.3492 45.2818 30.2162C45.1401 30.0832 45.0305 29.9264 44.9521 29.7458C44.8737 29.5661 44.8345 29.3732 44.8345 29.1688C44.8345 28.9574 44.8755 28.7609 44.9575 28.5795C45.0394 28.398 45.15 28.2403 45.2899 28.1073C45.4298 27.9743 45.5955 27.8703 45.788 27.7955C45.9805 27.7206 46.1855 27.6836 46.4039 27.6836C46.5678 27.6836 46.7229 27.7056 46.869 27.7488C47.0152 27.7928 47.1489 27.8536 47.2674 27.9329C47.3868 28.0122 47.492 28.1064 47.5847 28.2174C47.6774 28.3284 47.7495 28.4491 47.8048 28.5804L47.3699 28.7513C47.2808 28.5566 47.1533 28.4051 46.9867 28.2941C46.82 28.184 46.624 28.1285 46.3985 28.1285C46.2452 28.1285 46.1026 28.1558 45.9716 28.2104C45.8406 28.265 45.7274 28.3381 45.6321 28.4306C45.5367 28.5231 45.4619 28.6341 45.4075 28.7618C45.3531 28.8896 45.3255 29.0252 45.3255 29.1697C45.3255 29.3142 45.3531 29.4481 45.4075 29.5723C45.4619 29.6974 45.5376 29.8066 45.6348 29.9008C45.7319 29.9951 45.8469 30.07 45.9796 30.1237C46.1124 30.1783 46.2577 30.2056 46.4145 30.2056C46.6534 30.2056 46.8539 30.1457 47.0179 30.0259C47.1819 29.9061 47.3039 29.7555 47.3859 29.5758L47.8306 29.7555C47.7727 29.8859 47.6987 30.0057 47.6078 30.1149C47.5169 30.2241 47.4118 30.3184 47.2906 30.3986C47.1694 30.4787 47.0348 30.5404 46.8869 30.5844C46.738 30.6276 46.5776 30.6496 46.4039 30.6496Z" fill="white"/>
<path d="M50.4677 30.6496C50.253 30.6496 50.0516 30.6118 49.8644 30.5351C49.6773 30.4585 49.5124 30.3537 49.3707 30.2206C49.229 30.0876 49.1185 29.9308 49.0383 29.7502C48.9581 29.5696 48.918 29.3759 48.918 29.168C48.918 28.9565 48.9581 28.761 49.0383 28.5813C49.1185 28.4016 49.229 28.2448 49.3707 28.1117C49.5124 27.9787 49.6764 27.8739 49.8644 27.7973C50.0516 27.7206 50.253 27.6827 50.4677 27.6827C50.6825 27.6827 50.8839 27.7206 51.0737 27.7973C51.2627 27.8739 51.4284 27.9778 51.5692 28.1117C51.7109 28.2448 51.8214 28.4016 51.9016 28.5813C51.9819 28.7619 52.022 28.9574 52.022 29.168C52.022 29.3759 51.9819 29.5696 51.9016 29.7502C51.8214 29.9299 51.7109 30.0867 51.5692 30.2206C51.4275 30.3537 51.2627 30.4585 51.0737 30.5351C50.8848 30.6118 50.6825 30.6496 50.4677 30.6496ZM50.4677 30.2048C50.6175 30.2048 50.7574 30.1775 50.8866 30.1229C51.0158 30.0682 51.129 29.9942 51.2261 29.9C51.3233 29.8057 51.399 29.6965 51.4534 29.5714C51.5077 29.4463 51.5354 29.3124 51.5354 29.1688C51.5354 29.0252 51.5077 28.8896 51.4534 28.7636C51.399 28.6376 51.3233 28.5267 51.2261 28.4324C51.129 28.3381 51.0158 28.2633 50.8866 28.2095C50.7574 28.1549 50.6175 28.1276 50.4677 28.1276C50.3216 28.1276 50.1834 28.1549 50.0533 28.2095C49.9241 28.2641 49.8109 28.3381 49.7156 28.4324C49.6202 28.5267 49.5454 28.6368 49.491 28.7636C49.4366 28.8896 49.409 29.0252 49.409 29.1688C49.409 29.3124 49.4366 29.4472 49.491 29.5714C49.5454 29.6965 49.6202 29.8057 49.7156 29.9C49.8109 29.9942 49.9232 30.0691 50.0533 30.1229C50.1834 30.1775 50.3216 30.2048 50.4677 30.2048Z" fill="white"/>
<path d="M53.2847 27.6886H53.765V28.1132C53.9112 27.8304 54.1634 27.6886 54.5216 27.6886C54.6509 27.6886 54.7623 27.7036 54.854 27.7326C54.9458 27.7617 55.0296 27.7961 55.1045 27.8348L54.9004 28.285C54.8425 28.248 54.7828 28.2171 54.7213 28.1916C54.6598 28.1661 54.568 28.1537 54.445 28.1537C54.2436 28.1537 54.0814 28.2198 53.9566 28.351C53.8319 28.4823 53.7704 28.6911 53.7704 28.9774C53.7704 28.9844 53.7704 29.0135 53.7704 29.0655C53.7704 29.1174 53.7704 29.1835 53.7704 29.2628C53.7704 29.3421 53.7704 29.431 53.7704 29.5306C53.7704 29.6301 53.7721 29.7305 53.7757 29.831C53.7757 30.0732 53.7757 30.3445 53.7757 30.6449H53.2847V27.6886V27.6886Z" fill="white"/>
<path d="M57.8037 30.6493C57.5818 30.6493 57.3724 30.6053 57.1745 30.5172C56.9767 30.4291 56.8199 30.2996 56.704 30.1296V31.9998H56.229V27.6895H56.704V28.2638C56.8234 28.0797 56.9838 27.937 57.1843 27.8357C57.3858 27.7344 57.5916 27.6842 57.8028 27.6842C58.014 27.6842 58.2119 27.7212 58.3955 27.7961C58.579 27.871 58.7395 27.9749 58.8758 28.1079C59.0122 28.2409 59.1191 28.3977 59.1975 28.5783C59.276 28.758 59.3152 28.9562 59.3152 29.1703C59.3152 29.3817 59.2751 29.5782 59.1949 29.7596C59.1146 29.9411 59.0068 30.0979 58.8705 30.2292C58.7341 30.3604 58.5737 30.4635 58.3901 30.5384C58.2074 30.6123 58.0114 30.6493 57.8037 30.6493ZM57.7574 30.2045C57.9071 30.2045 58.047 30.1772 58.1762 30.1226C58.3055 30.0679 58.4186 29.9948 58.5158 29.9023C58.6129 29.8098 58.6896 29.6988 58.7457 29.5711C58.8018 29.4434 58.8304 29.3068 58.8304 29.1633C58.8304 29.0197 58.8018 28.884 58.7457 28.758C58.6896 28.6321 58.6129 28.5211 58.5158 28.4268C58.4186 28.3326 58.3055 28.2586 58.1762 28.2039C58.047 28.1493 57.9071 28.122 57.7574 28.122C57.6005 28.122 57.4553 28.1493 57.3207 28.2039C57.1861 28.2586 57.0703 28.3326 56.9731 28.4268C56.876 28.5211 56.8002 28.6312 56.7459 28.758C56.6915 28.884 56.6639 29.0197 56.6639 29.1633C56.6639 29.3068 56.6915 29.4434 56.7459 29.5711C56.8002 29.6988 56.876 29.8098 56.9731 29.9023C57.0703 29.9948 57.1861 30.0688 57.3207 30.1226C57.4553 30.1772 57.6005 30.2045 57.7574 30.2045Z" fill="white"/>
<path d="M62.0319 30.6496C61.8172 30.6496 61.6158 30.6118 61.4286 30.5351C61.2415 30.4585 61.0766 30.3537 60.9349 30.2206C60.7932 30.0876 60.6827 29.9308 60.6025 29.7502C60.5223 29.5696 60.4822 29.3759 60.4822 29.168C60.4822 28.9565 60.5223 28.761 60.6025 28.5813C60.6827 28.4016 60.7932 28.2448 60.9349 28.1117C61.0766 27.9787 61.2406 27.8739 61.4286 27.7973C61.6158 27.7206 61.8172 27.6827 62.0319 27.6827C62.2467 27.6827 62.4481 27.7206 62.6379 27.7973C62.8269 27.8739 62.9926 27.9778 63.1334 28.1117C63.2751 28.2448 63.3856 28.4016 63.4659 28.5813C63.5461 28.7619 63.5862 28.9574 63.5862 29.168C63.5862 29.3759 63.5461 29.5696 63.4659 29.7502C63.3856 29.9299 63.2751 30.0867 63.1334 30.2206C62.9917 30.3537 62.8269 30.4585 62.6379 30.5351C62.4481 30.6118 62.2467 30.6496 62.0319 30.6496ZM62.0319 30.2048C62.1817 30.2048 62.3216 30.1775 62.4508 30.1229C62.58 30.0682 62.6932 29.9942 62.7903 29.9C62.8875 29.8057 62.9632 29.6965 63.0176 29.5714C63.0719 29.4463 63.0996 29.3124 63.0996 29.1688C63.0996 29.0252 63.0719 28.8896 63.0176 28.7636C62.9632 28.6376 62.8875 28.5267 62.7903 28.4324C62.6932 28.3381 62.58 28.2633 62.4508 28.2095C62.3216 28.1549 62.1817 28.1276 62.0319 28.1276C61.8858 28.1276 61.7477 28.1549 61.6175 28.2095C61.4883 28.2641 61.3751 28.3381 61.2798 28.4324C61.1844 28.5267 61.1096 28.6368 61.0552 28.7636C61.0008 28.8896 60.9732 29.0252 60.9732 29.1688C60.9732 29.3124 61.0008 29.4472 61.0552 29.5714C61.1096 29.6965 61.1844 29.8057 61.2798 29.9C61.3751 29.9942 61.4874 30.0691 61.6175 30.1229C61.7468 30.1775 61.8849 30.2048 62.0319 30.2048Z" fill="white"/>
<path d="M64.8486 27.6886H65.329V28.1132C65.4751 27.8304 65.7273 27.6886 66.0856 27.6886C66.2148 27.6886 66.3262 27.7036 66.418 27.7326C66.5098 27.7617 66.5936 27.7961 66.6684 27.8348L66.4643 28.285C66.4064 28.248 66.3467 28.2171 66.2852 28.1916C66.2237 28.1661 66.1319 28.1537 66.009 28.1537C65.8075 28.1537 65.6454 28.2198 65.5206 28.351C65.3958 28.4823 65.3343 28.6911 65.3343 28.9774C65.3343 28.9844 65.3343 29.0135 65.3343 29.0655C65.3343 29.1174 65.3343 29.1835 65.3343 29.2628C65.3343 29.3421 65.3343 29.431 65.3343 29.5306C65.3343 29.6301 65.3361 29.7305 65.3397 29.831C65.3397 30.0732 65.3397 30.3445 65.3397 30.6449H64.8486V27.6886V27.6886Z" fill="white"/>
<path d="M69.0454 30.6496C68.8378 30.6496 68.6408 30.6126 68.4546 30.5377C68.2692 30.4629 68.107 30.3598 67.9689 30.2285C67.8307 30.0973 67.722 29.9405 67.6418 29.759C67.5616 29.5776 67.5215 29.3811 67.5215 29.1697C67.5215 28.9556 67.5607 28.7583 67.6391 28.5777C67.7175 28.3971 67.8254 28.2403 67.9635 28.1073C68.1016 27.9743 68.2638 27.8703 68.4492 27.7955C68.6346 27.7206 68.8333 27.6836 69.0445 27.6836C69.2557 27.6836 69.4616 27.7329 69.663 27.8325C69.8644 27.932 70.0239 28.0721 70.1433 28.2535V27.6889H70.6237V30.6452H70.1433V30.0964C70.0239 30.2726 69.8626 30.4091 69.6603 30.5051C69.4589 30.6012 69.2531 30.6496 69.0454 30.6496ZM69.0918 30.2048C69.245 30.2048 69.3885 30.1775 69.5213 30.1228C69.6541 30.0682 69.769 29.9951 69.8662 29.9026C69.9633 29.8101 70.04 29.6991 70.0961 29.5714C70.1523 29.4437 70.1808 29.3071 70.1808 29.1635C70.1808 29.0199 70.1523 28.8843 70.0961 28.7583C70.04 28.6323 69.9633 28.5213 69.8662 28.4271C69.769 28.3328 69.6541 28.2588 69.5213 28.2042C69.3885 28.1496 69.245 28.1223 69.0918 28.1223C68.942 28.1223 68.8012 28.1496 68.6702 28.2042C68.5392 28.2588 68.4251 28.3328 68.328 28.4271C68.2309 28.5213 68.1542 28.6315 68.0981 28.7583C68.0419 28.8843 68.0134 29.0199 68.0134 29.1635C68.0134 29.3071 68.0419 29.4437 68.0981 29.5714C68.1542 29.6991 68.2309 29.8101 68.328 29.9026C68.4251 29.9951 68.5392 30.0691 68.6702 30.1228C68.8012 30.1775 68.9411 30.2048 69.0918 30.2048Z" fill="white"/>
<path d="M71.8115 27.6888H72.3329V27.1277L72.8132 26.7991V27.6888H73.5137V28.1231H72.8132V29.4973C72.8132 29.6453 72.8212 29.7651 72.8391 29.8558C72.856 29.9466 72.8898 30.017 72.9415 30.0655C72.9923 30.1139 73.0645 30.1474 73.1563 30.1641C73.2481 30.1809 73.3675 30.1897 73.5146 30.1897V30.6442H73.4433C73.2249 30.6442 73.0449 30.6266 72.9014 30.5914C72.758 30.5562 72.6448 30.4945 72.561 30.4073C72.4772 30.3201 72.4184 30.2029 72.3845 30.0558C72.3507 29.9096 72.3338 29.7246 72.3338 29.5026V28.1231H71.8124V27.6888H71.8115Z" fill="white"/>
<path d="M74.6687 26.9656C74.6687 26.8643 74.6999 26.7832 74.7632 26.7207C74.8264 26.6582 74.9102 26.6273 75.0163 26.6273C75.1286 26.6273 75.2159 26.6582 75.2774 26.7207C75.3389 26.7832 75.3692 26.8643 75.3692 26.9656C75.3692 27.0704 75.3389 27.1532 75.2774 27.2158C75.2159 27.2783 75.1294 27.3091 75.0163 27.3091C74.9075 27.3091 74.822 27.2783 74.7605 27.2158C74.6999 27.1532 74.6687 27.0704 74.6687 26.9656ZM74.7712 27.6888H75.2622V30.6452H74.7712V27.6888Z" fill="white"/>
<path d="M78.063 30.6496C77.8482 30.6496 77.6468 30.6118 77.4596 30.5351C77.2725 30.4585 77.1076 30.3537 76.9659 30.2206C76.8242 30.0876 76.7137 29.9308 76.6335 29.7502C76.5533 29.5696 76.5132 29.3759 76.5132 29.168C76.5132 28.9565 76.5533 28.761 76.6335 28.5813C76.7137 28.4016 76.8242 28.2448 76.9659 28.1117C77.1076 27.9787 77.2716 27.8739 77.4596 27.7973C77.6468 27.7206 77.8482 27.6827 78.063 27.6827C78.2777 27.6827 78.4791 27.7206 78.669 27.7973C78.8579 27.8739 79.0236 27.9778 79.1645 28.1117C79.3061 28.2448 79.4167 28.4016 79.4969 28.5813C79.5771 28.7619 79.6172 28.9574 79.6172 29.168C79.6172 29.3759 79.5771 29.5696 79.4969 29.7502C79.4167 29.9299 79.3061 30.0867 79.1645 30.2206C79.0228 30.3537 78.8579 30.4585 78.669 30.5351C78.48 30.6118 78.2777 30.6496 78.063 30.6496ZM78.063 30.2048C78.2127 30.2048 78.3526 30.1775 78.4818 30.1229C78.611 30.0682 78.7242 29.9942 78.8213 29.9C78.9185 29.8057 78.9942 29.6965 79.0486 29.5714C79.103 29.4463 79.1306 29.3124 79.1306 29.1688C79.1306 29.0252 79.103 28.8896 79.0486 28.7636C78.9942 28.6376 78.9185 28.5267 78.8213 28.4324C78.7242 28.3381 78.611 28.2633 78.4818 28.2095C78.3526 28.1549 78.2127 28.1276 78.063 28.1276C77.9168 28.1276 77.7787 28.1549 77.6485 28.2095C77.5193 28.2641 77.4061 28.3381 77.3108 28.4324C77.2154 28.5267 77.1406 28.6368 77.0862 28.7636C77.0319 28.8896 77.0042 29.0252 77.0042 29.1688C77.0042 29.3124 77.0319 29.4472 77.0862 29.5714C77.1406 29.6965 77.2154 29.8057 77.3108 29.9C77.4061 29.9942 77.5184 30.0691 77.6485 30.1229C77.7787 30.1775 77.9168 30.2048 78.063 30.2048Z" fill="white"/>
<path d="M80.8801 27.6889H81.3605V28.2218C81.463 28.0597 81.6011 27.9302 81.7749 27.8316C81.9486 27.7329 82.1483 27.6836 82.3728 27.6836C82.5671 27.6836 82.7436 27.7135 82.9022 27.7726C83.0608 27.8325 83.1945 27.9188 83.3032 28.0333C83.412 28.147 83.4966 28.2853 83.5563 28.4473C83.616 28.6094 83.6454 28.7927 83.6454 28.9979V30.6443H83.1544V29.0226C83.1544 28.746 83.0813 28.5249 82.9343 28.3601C82.7881 28.1954 82.5698 28.1126 82.2802 28.1126C82.1509 28.1126 82.0297 28.1355 81.9175 28.1822C81.8052 28.2289 81.708 28.2923 81.626 28.3751C81.5441 28.4579 81.4808 28.5557 81.4344 28.6693C81.3881 28.783 81.3658 28.9072 81.3658 29.0428V30.6452H80.8801V27.6889Z" fill="white"/>
</svg>
